<svg width="26" height="27" viewBox="0 0 26 27" fill="none" xmlns="http://www.w3.org/2000/svg">
<g id="Icon">
<g id="Icon_2">
<path id="Shape" d="M1.29962 24.9189C3.01499 25.1308 4.73455 24.5587 5.97947 23.3618C6.87606 24.3531 8.15139 24.9188 9.48935 24.9188C10.8273 24.9188 12.1026 24.3531 12.9992 23.3618C13.8958 24.3531 15.1712 24.9188 16.5091 24.9188C17.8471 24.9188 19.1224 24.3531 20.019 23.3618C21.2639 24.5587 22.9835 25.1308 24.6988 24.9189" stroke="#062949" stroke-width="0.974971" stroke-linecap="round" stroke-linejoin="round"/>
<path id="Shape_2" d="M23.1466 21.8132C23.7701 21.2406 24.275 20.5514 24.6327 19.7848C24.7397 19.5439 24.7173 19.2654 24.5734 19.0445C24.4294 18.8237 24.1832 18.6905 23.9193 18.6907H2.07999C1.81601 18.6905 1.56988 18.8237 1.42589 19.0445C1.28189 19.2654 1.25957 19.5439 1.36657 19.7848C1.7989 20.7017 2.43396 21.5088 3.22395 22.1453" stroke="#062949" stroke-width="0.974971" stroke-linecap="round" stroke-linejoin="round"/>
<path id="Shape_3" d="M12.2173 18.6915V2.87867C12.2175 2.3114 11.8533 1.80795 11.3138 1.6297C10.7742 1.45144 10.181 1.63856 9.84207 2.09389L2.8795 12.8129C2.72231 13.0524 2.7095 13.3587 2.84613 13.6104C2.98277 13.8622 3.2468 14.0188 3.53364 14.0181L12.2153 14.0057" stroke="#062949" stroke-width="0.974971" stroke-linecap="round" stroke-linejoin="round"/>
<path id="Shape_4" fill-rule="evenodd" clip-rule="evenodd" d="M16.776 6.90711C16.5889 6.61631 16.232 6.4835 15.8998 6.58099C15.5676 6.67848 15.3396 6.98292 15.3398 7.32856V15.577H20.9307C21.2159 15.5765 21.4781 15.4208 21.6147 15.1709C21.7514 14.9211 21.7407 14.6167 21.5869 14.377L16.776 6.90711Z" stroke="#062949" stroke-width="0.974971" stroke-linecap="round" stroke-linejoin="round"/>
</g>
</g>
</svg>
