<svg width="26" height="27" viewBox="0 0 26 27" fill="none" xmlns="http://www.w3.org/2000/svg">
<g id="Icon">
<g id="Regular">
<path id="Shape" d="M8.40028 22.1451H14.1615" stroke="#062949" stroke-width="0.900043" stroke-linecap="round" stroke-linejoin="round"/>
<path id="Shape_2" d="M11.283 22.1444V13.8725" stroke="#062949" stroke-width="0.900043" stroke-linecap="round" stroke-linejoin="round"/>
<path id="Shape_3" fill-rule="evenodd" clip-rule="evenodd" d="M18.6972 6.77656C18.903 6.57941 18.9644 6.28312 18.8531 6.02568C18.7417 5.76824 18.4794 5.60028 18.1883 5.60004H4.38063C4.08953 5.60028 3.82721 5.76824 3.71585 6.02568C3.60449 6.28312 3.66598 6.57941 3.87169 6.77656L11.2849 13.8725L18.6972 6.77656Z" stroke="#062949" stroke-width="0.900043" stroke-linecap="round" stroke-linejoin="round"/>
<path id="Shape_4" d="M1.2001 1.46332H3.90981C4.45545 1.46316 4.95433 1.75815 5.19841 2.22525L6.96135 5.59928" stroke="#062949" stroke-width="0.900043" stroke-linecap="round" stroke-linejoin="round"/>
<path id="Shape_5" d="M15.6774 5.60005C15.6295 5.37283 15.6054 5.14161 15.6054 4.90981C15.607 3.36037 16.6895 2.00276 18.2505 1.59244C19.8114 1.18211 21.4664 1.8201 22.2946 3.1514C23.1228 4.4827 22.9202 6.17948 21.7995 7.29757C20.6789 8.41566 18.9161 8.67973 17.4922 7.94285" stroke="#062949" stroke-width="0.900043" stroke-linecap="round" stroke-linejoin="round"/>
</g>
</g>
</svg>
