<svg width="24" height="25" viewBox="0 0 24 25" fill="none" xmlns="http://www.w3.org/2000/svg">
<rect width="24" height="25" fill="none"/>
<g id="Homepage" clip-path="url(#clip0_1_2)">
<rect width="1440" height="9086" transform="translate(-1145 -8732)" fill="none"/>
<g id="Footer">
<rect id="Rectangle 543" x="-1145" y="-215.497" width="1443" height="570" fill="none"/>
<g id="item">
<rect x="-8" y="-7.49707" width="40" height="40" rx="20" fill="none"/>
<g id="social">
<path id="instagram" fill-rule="evenodd" clip-rule="evenodd" d="M11.9933 4.50293C9.82182 4.50293 9.54871 4.50293 8.69609 4.54965C7.85012 4.5897 7.26395 4.72321 6.76436 4.92346C6.23147 5.12371 5.77852 5.40406 5.33222 5.83793C4.90591 6.30518 4.63281 6.74573 4.42631 7.27306C4.22648 7.78036 4.09326 8.36776 4.05329 9.20881C4 10.0766 4 10.3436 4 12.5129C4 14.6823 4 14.9627 4.04663 15.8171C4.08659 16.6648 4.21982 17.2522 4.41965 17.7528C4.61948 18.2868 4.89925 18.7341 5.33888 19.1813C5.80516 19.5951 6.25812 19.8688 6.78435 20.0757C7.29059 20.276 7.87677 20.4095 8.71607 20.4495C9.58202 20.4963 9.84846 20.5029 12.02 20.5029C14.1915 20.5029 14.4713 20.5029 15.3239 20.4495C16.1632 20.4095 16.7494 20.276 17.2556 20.0757C17.7885 19.8755 18.2281 19.5951 18.6744 19.1546C19.1074 18.7007 19.3805 18.2535 19.587 17.7261C19.7868 17.2188 19.9201 16.6314 19.9534 15.7904C19.9933 14.9226 20 14.6556 20 12.4796C20 10.3035 20 10.0298 19.9534 9.17544C19.9134 8.34106 19.7802 7.75366 19.5803 7.23968C19.3805 6.70568 19.0874 6.27181 18.6478 5.82458C18.1882 5.37068 17.7552 5.10368 17.229 4.90343C16.7227 4.70318 16.1366 4.56968 15.2973 4.52295C14.438 4.50293 14.1715 4.50293 11.9933 4.50293ZM11.993 5.94434C14.1246 5.94434 14.3777 5.94434 15.2237 5.99106C16.003 6.03111 16.4227 6.15794 16.7091 6.27141C17.0821 6.40491 17.3486 6.58514 17.6283 6.87216C17.9081 7.13916 18.0813 7.40616 18.2278 7.78664C18.3344 8.07366 18.461 8.49419 18.4943 9.27517C18.5409 10.1229 18.5476 10.3765 18.5476 12.5125C18.5476 14.6486 18.5476 14.9022 18.5009 15.7499C18.461 16.5309 18.3344 16.9514 18.2212 17.2385C18.0879 17.6123 17.9081 17.8793 17.6217 18.1596C17.3552 18.44 17.0888 18.6135 16.7091 18.7604C16.4227 18.8672 16.003 18.994 15.2237 19.0274C14.3777 19.0741 14.1246 19.0808 11.993 19.0808C9.86146 19.0808 9.60833 19.0808 8.76237 19.034C7.98302 18.994 7.56337 18.8672 7.27694 18.7537C6.90392 18.6202 6.63748 18.44 6.35771 18.1529C6.07794 17.8859 5.90475 17.6189 5.75821 17.2385C5.65163 16.9514 5.52507 16.5309 5.49177 15.7499C5.44514 14.9022 5.43848 14.6486 5.43848 12.5125C5.43848 10.3765 5.43848 10.1229 5.4851 9.27517C5.52507 8.49419 5.65163 8.07366 5.76487 7.78664C5.89809 7.41284 6.07794 7.14584 6.36437 6.86549C6.63082 6.58514 6.89726 6.41159 7.27694 6.26474C7.56337 6.15794 7.98302 6.03111 8.76237 5.99774C9.60833 5.95101 9.86146 5.94434 11.993 5.94434ZM7.88965 12.5132C7.88965 10.2437 9.72812 8.40137 11.9929 8.40137C14.2577 8.40137 16.0961 10.2437 16.0961 12.5132C16.0961 14.7827 14.2577 16.625 11.9929 16.625C9.72812 16.625 7.88965 14.7827 7.88965 12.5132ZM11.9933 15.1829C10.5279 15.1829 9.32889 13.9814 9.32889 12.5129C9.32889 11.0444 10.5279 9.84294 11.9933 9.84294C13.4588 9.84294 14.6578 11.0444 14.6578 12.5129C14.6578 13.9814 13.4588 15.1829 11.9933 15.1829ZM16.2626 9.19617C16.7889 9.19617 17.2218 8.77565 17.2218 8.24165L17.2551 8.20827C17.2551 7.68095 16.8222 7.24707 16.2893 7.24707C15.7564 7.24707 15.3301 7.70097 15.3301 8.23497C15.3301 8.76897 15.7297 9.19617 16.2626 9.19617Z" fill="white"/>
</g>
</g>
</g>
</g>
<defs>
<clipPath id="clip0_1_2">
<rect width="1440" height="9086" fill="white" transform="translate(-1145 -8732)"/>
</clipPath>
</defs>
</svg>
