<svg width="24" height="25" viewBox="0 0 24 25" fill="none" xmlns="http://www.w3.org/2000/svg">
<rect width="24" height="25" fill="none"/>
<g id="Homepage" clip-path="url(#clip0_1_2)">
<rect width="1440" height="9086" transform="translate(-1241 -8732)" fill="none"/>
<g id="Footer">
<rect id="Rectangle 543" x="-1241" y="-215.497" width="1443" height="570" fill="none"/>
<g id="item">
<rect x="-8" y="-7.49707" width="40" height="40" rx="20" fill="none"/>
<g id="social">
<path id="youtube" fill-rule="evenodd" clip-rule="evenodd" d="M10.0508 15.6645V9.92676L15.0195 12.7958L10.0508 15.6645ZM21.1264 8.19293C20.9064 7.37019 20.2584 6.72204 19.4355 6.5021C17.944 6.10254 11.9632 6.10254 11.9632 6.10254C11.9632 6.10254 5.98246 6.10254 4.49094 6.5021C3.66804 6.72204 3.02005 7.37019 2.80011 8.19293C2.40039 9.6846 2.40039 12.7964 2.40039 12.7964C2.40039 12.7964 2.40039 15.9084 2.80011 17.3999C3.02005 18.2226 3.66804 18.871 4.49094 19.0907C5.98246 19.4905 11.9632 19.4905 11.9632 19.4905C11.9632 19.4905 17.944 19.4905 19.4355 19.0907C20.2584 18.871 20.9064 18.2226 21.1264 17.3999C21.5261 15.9084 21.5261 12.7964 21.5261 12.7964C21.5261 12.7964 21.5261 9.6846 21.1264 8.19293Z" fill="white"/>
</g>
</g>
</g>
</g>
<defs>
<clipPath id="clip0_1_2">
<rect width="1440" height="9086" fill="white" transform="translate(-1241 -8732)"/>
</clipPath>
</defs>
</svg>
