<svg width="32" height="32" viewBox="0 0 32 32" fill="none" xmlns="http://www.w3.org/2000/svg">
<g id="Icon">
<g id="Icon_2">
<path id="Shape" d="M2 29.9481C4.05256 30.2017 6.11014 29.5171 7.59977 28.085C8.67261 29.2711 10.1986 29.9481 11.7996 29.9481C13.4005 29.9481 14.9266 29.2711 15.9994 28.085C17.0723 29.2711 18.5983 29.9481 20.1992 29.9481C21.8002 29.9481 23.3262 29.2711 24.3991 28.085C25.8887 29.5171 27.9463 30.2017 29.9988 29.9481" stroke="#062949" stroke-width="1.5" stroke-linecap="round" stroke-linejoin="round"/>
<path id="Shape_2" d="M28.1414 26.2314C28.8875 25.5463 29.4917 24.7216 29.9197 23.8043C30.0477 23.5161 30.021 23.1828 29.8487 22.9185C29.6764 22.6543 29.3819 22.495 29.066 22.4951H2.93376C2.6179 22.495 2.32339 22.6543 2.15109 22.9185C1.97879 23.1828 1.95208 23.5161 2.08011 23.8043C2.59742 24.9015 3.35731 25.8672 4.30259 26.6289" stroke="#062949" stroke-width="1.5" stroke-linecap="round" stroke-linejoin="round"/>
<path id="Shape_3" d="M15.0663 22.4955V3.57431C15.0664 2.89553 14.6306 2.29311 13.985 2.07982C13.3395 1.86653 12.6296 2.09042 12.2241 2.63527L3.89285 15.4614C3.70477 15.7479 3.68943 16.1144 3.85293 16.4156C4.01642 16.7169 4.33236 16.9042 4.67557 16.9035L15.0638 16.8886" stroke="#062949" stroke-width="1.5" stroke-linecap="round" stroke-linejoin="round"/>
<path id="Shape_4" fill-rule="evenodd" clip-rule="evenodd" d="M20.5183 8.39492C20.2944 8.04696 19.8674 7.88804 19.4699 8.0047C19.0723 8.12135 18.7995 8.48564 18.7998 8.89922V18.7691H25.4897C25.8309 18.7684 26.1447 18.5822 26.3082 18.2832C26.4717 17.9842 26.4589 17.62 26.2749 17.3332L20.5183 8.39492Z" stroke="#062949" stroke-width="1.5" stroke-linecap="round" stroke-linejoin="round"/>
</g>
</g>
</svg>
