<svg width="34" height="21" viewBox="0 0 34 21" fill="none" xmlns="http://www.w3.org/2000/svg">
<path id="Vector" d="M31.875 0H2.125C1.56141 0 1.02091 0.22125 0.622398 0.615076C0.223883 1.0089 0 1.54305 0 2.1V18.9C0 19.457 0.223883 19.9911 0.622398 20.3849C1.02091 20.7787 1.56141 21 2.125 21H31.875C32.4386 21 32.9791 20.7787 33.3776 20.3849C33.7761 19.9911 34 19.457 34 18.9V2.1C34 1.54305 33.7761 1.0089 33.3776 0.615076C32.9791 0.22125 32.4386 0 31.875 0ZM31.875 6.3C30.7874 6.21286 29.7685 5.73947 29.0067 4.96737C28.245 4.19526 27.7919 3.17669 27.7313 2.1H31.875V6.3ZM31.875 8.001V13.0725C30.3451 13.1633 28.9026 13.8076 27.8228 14.8825C26.7429 15.9573 26.1014 17.3875 26.0206 18.9H7.95812C7.88036 17.389 7.24295 15.9591 6.16729 14.8825C5.09162 13.806 3.65286 13.158 2.125 13.062V7.98C3.66359 7.88807 5.11323 7.23634 6.1943 6.15054C7.27538 5.06474 7.91129 3.62178 7.97938 2.1H26.0419C26.1095 3.61839 26.7424 5.05855 27.8191 6.14386C28.8957 7.22916 30.3402 7.88308 31.875 7.98V8.001ZM6.26875 2.1C6.20813 3.17669 5.75505 4.19526 4.99329 4.96737C4.23153 5.73947 3.21262 6.21286 2.125 6.3V2.1H6.26875ZM2.125 14.763C3.20238 14.8484 4.21304 15.3128 4.9734 16.0719C5.73376 16.831 6.19337 17.8345 6.26875 18.9H2.125V14.763ZM27.7313 18.9C27.8066 17.8345 28.2662 16.831 29.0266 16.0719C29.787 15.3128 30.7976 14.8484 31.875 14.763V18.9H27.7313Z" fill="#062949"/>
</svg>
