<svg width="1438" height="634" viewBox="0 0 1438 634" fill="none" xmlns="http://www.w3.org/2000/svg">
<path d="M1 34.837C1 34.837 12.179 28.5028 15.3878 18.1805C18.5966 7.85813 30.5002 0.976562 30.5002 0.976562" stroke="white" stroke-opacity="0.05" stroke-width="1.64612" stroke-miterlimit="10"/>
<path d="M1 63.4303C1 63.4303 38.004 54.452 47.8051 31.849C57.2061 9.87602 95.2102 0.976562 95.2102 0.976562" stroke="white" stroke-opacity="0.05" stroke-width="1.64612" stroke-miterlimit="10"/>
<path d="M1 92.776C1 92.776 64.1889 81.0721 80.586 45.9607C96.3833 12.1231 160.872 0.976562 160.872 0.976562" stroke="white" stroke-opacity="0.05" stroke-width="1.64612" stroke-miterlimit="10"/>
<path d="M1 120.617C1 120.617 90.3133 106.314 113.517 59.2952C135.62 14.0943 226.534 0.976562 226.534 0.976562" stroke="white" stroke-opacity="0.05" stroke-width="1.64612" stroke-miterlimit="10"/>
<path d="M1 149.21C1 149.21 116.876 132.283 146.772 73.0367C175.365 16.2429 293.147 0.976562 293.147 0.976562" stroke="white" stroke-opacity="0.05" stroke-width="1.64612" stroke-miterlimit="10"/>
<path d="M1 177.051C1 177.051 142.683 157.583 179.179 86.334C213.974 18.316 357.857 0.976562 357.857 0.976562" stroke="white" stroke-opacity="0.05" stroke-width="1.64612" stroke-miterlimit="10"/>
<path d="M1 205.644C1 205.644 168.768 183.482 211.959 100.116C253.151 20.3786 423.519 0.976562 423.519 0.976562" stroke="white" stroke-opacity="0.05" stroke-width="1.64612" stroke-miterlimit="10"/>
<path d="M1 234.99C1 234.99 195.331 210.123 245.316 114.142C292.896 22.5961 490.132 0.976562 490.132 0.976562" stroke="white" stroke-opacity="0.05" stroke-width="1.64612" stroke-miterlimit="10"/>
<path d="M1 262.831C1 262.831 221.177 235.421 277.771 127.52C331.565 24.6738 554.842 0.976562 554.842 0.976562" stroke="white" stroke-opacity="0.05" stroke-width="1.64612" stroke-miterlimit="10"/>
<path d="M1 291.424C1 291.424 247.262 261.399 310.552 141.222C370.843 26.7344 620.504 0.976562 620.504 0.976562" stroke="white" stroke-opacity="0.05" stroke-width="1.64612" stroke-miterlimit="10"/>
<path d="M1 319.265C1 319.265 273.446 286.616 343.433 154.6C410.02 28.8149 686.165 0.976562 686.165 0.976562" stroke="white" stroke-opacity="0.05" stroke-width="1.64612" stroke-miterlimit="10"/>
<path d="M1 348.61C1 348.61 300.01 313.262 376.689 168.625C449.765 31.0268 752.779 0.976562 752.779 0.976562" stroke="white" stroke-opacity="0.05" stroke-width="1.64612" stroke-miterlimit="10"/>
<path d="M1 377.204C1 377.204 325.756 339.241 409.144 182.407C488.434 33.0867 817.489 0.976562 817.489 0.976562" stroke="white" stroke-opacity="0.05" stroke-width="1.64612" stroke-miterlimit="10"/>
<path d="M1 405.797C1 405.797 351.94 365.212 441.925 196.148C527.611 35.2324 883.15 0.976562 883.15 0.976562" stroke="white" stroke-opacity="0.05" stroke-width="1.64612" stroke-miterlimit="10"/>
<path d="M1 433.638C1 433.638 377.747 390.435 474.33 209.488C566.22 37.3081 947.861 0.976562 947.861 0.976562" stroke="white" stroke-opacity="0.05" stroke-width="1.64612" stroke-miterlimit="10"/>
<path d="M1 462.231C1 462.231 404.21 416.406 507.587 223.229C605.965 39.3749 1014.47 0.976562 1014.47 0.976562" stroke="white" stroke-opacity="0.05" stroke-width="1.64612" stroke-miterlimit="10"/>
<path d="M1 490.824C1 490.824 430.395 442.377 540.468 236.891C645.142 41.5206 1080.14 0.976562 1080.14 0.976562" stroke="white" stroke-opacity="0.05" stroke-width="1.64612" stroke-miterlimit="10"/>
<path d="M1 519.417C1 519.417 456.241 468.277 572.923 250.672C683.811 43.6596 1144.85 0.976562 1144.85 0.976562" stroke="white" stroke-opacity="0.05" stroke-width="1.64612" stroke-miterlimit="10"/>
<path d="M1 548.011C1 548.011 482.704 494.248 606.179 264.334C723.556 45.726 1211.46 0.976562 1211.46 0.976562" stroke="white" stroke-opacity="0.05" stroke-width="1.64612" stroke-miterlimit="10"/>
<path d="M1 575.852C1 575.852 508.889 519.541 639.06 277.713C762.733 47.81 1277.12 0.976562 1277.12 0.976562" stroke="white" stroke-opacity="0.05" stroke-width="1.64612" stroke-miterlimit="10"/>
<path d="M1 604.445C1 604.445 535.074 545.52 671.841 291.415C801.91 49.9491 1342.78 0.976562 1342.78 0.976562" stroke="white" stroke-opacity="0.05" stroke-width="1.64612" stroke-miterlimit="10"/>
<path d="M1 633.038C1 633.038 560.819 571.412 704.296 305.156C840.579 52.0155 1407.49 0.976562 1407.49 0.976562" stroke="white" stroke-opacity="0.05" stroke-width="1.64612" stroke-miterlimit="10"/>
<path d="M1436.99 599.178C1436.99 599.178 1425.81 605.527 1422.6 615.873C1419.4 626.297 1407.49 633.038 1407.49 633.038" stroke="white" stroke-opacity="0.05" stroke-width="1.64612" stroke-miterlimit="10"/>
<path d="M1436.99 570.584C1436.99 570.584 1399.99 579.562 1390.19 602.165C1380.79 624.138 1342.78 633.038 1342.78 633.038" stroke="white" stroke-opacity="0.05" stroke-width="1.64612" stroke-miterlimit="10"/>
<path d="M1436.98 541.238C1436.98 541.238 1373.79 552.942 1357.4 588.054C1341.5 621.891 1277.11 633.038 1277.11 633.038" stroke="white" stroke-opacity="0.05" stroke-width="1.64612" stroke-miterlimit="10"/>
<path d="M1436.99 513.397C1436.99 513.397 1347.71 527.701 1324.52 574.719C1302.43 619.841 1211.45 633.038 1211.45 633.038" stroke="white" stroke-opacity="0.05" stroke-width="1.64612" stroke-miterlimit="10"/>
<path d="M1436.98 484.805C1436.98 484.805 1321.1 501.732 1291.2 560.978C1262.61 617.772 1144.83 633.038 1144.83 633.038" stroke="white" stroke-opacity="0.05" stroke-width="1.64612" stroke-miterlimit="10"/>
<path d="M1436.99 456.964C1436.99 456.964 1295.31 476.423 1258.81 547.64C1223.92 615.706 1080.13 633.038 1080.13 633.038" stroke="white" stroke-opacity="0.05" stroke-width="1.64612" stroke-miterlimit="10"/>
<path d="M1436.99 428.371C1436.99 428.371 1269.56 450.534 1226.45 533.899C1185.35 613.558 1015.42 633.039 1015.42 633.039" stroke="white" stroke-opacity="0.05" stroke-width="1.64612" stroke-miterlimit="10"/>
<path d="M1436.98 399.025C1436.98 399.025 1242.65 423.892 1192.67 519.873C1144.99 611.419 947.852 633.039 947.852 633.039" stroke="white" stroke-opacity="0.05" stroke-width="1.64612" stroke-miterlimit="10"/>
<path d="M1436.98 371.184C1436.98 371.184 1216.85 398.585 1160.26 506.454C1106.38 609.348 883.141 633.038 883.141 633.038" stroke="white" stroke-opacity="0.05" stroke-width="1.64612" stroke-miterlimit="10"/>
<path d="M1437 342.591C1437 342.591 1190.78 372.615 1127.5 492.792C1067.22 607.201 817.5 633.038 817.5 633.038" stroke="white" stroke-opacity="0.05" stroke-width="1.64612" stroke-miterlimit="10"/>
<path d="M1436.99 314.75C1436.99 314.75 1164.92 347.399 1095.03 479.414C1028.54 605.2 752.773 633.038 752.773 633.038" stroke="white" stroke-opacity="0.05" stroke-width="1.64612" stroke-miterlimit="10"/>
<path d="M1436.99 285.404C1436.99 285.404 1138.36 320.745 1061.78 465.349C988.794 602.995 686.164 633.038 686.164 633.038" stroke="white" stroke-opacity="0.05" stroke-width="1.64612" stroke-miterlimit="10"/>
<path d="M1436.98 256.811C1436.98 256.811 1112.26 294.773 1028.89 451.607C949.607 600.927 620.492 633.038 620.492 633.038" stroke="white" stroke-opacity="0.05" stroke-width="1.64612" stroke-miterlimit="10"/>
<path d="M1436.99 228.217C1436.99 228.217 1086.09 268.802 996.111 437.866C910.435 598.781 554.836 633.037 554.836 633.037" stroke="white" stroke-opacity="0.05" stroke-width="1.64612" stroke-miterlimit="10"/>
<path d="M1437 200.377C1437 200.377 1060.25 243.58 963.671 424.527C871.781 596.707 490.141 633.038 490.141 633.038" stroke="white" stroke-opacity="0.05" stroke-width="1.64612" stroke-miterlimit="10"/>
<path d="M1436.99 171.783C1436.99 171.783 1033.78 217.608 930.403 410.785C832.024 594.639 423.516 633.038 423.516 633.038" stroke="white" stroke-opacity="0.05" stroke-width="1.64612" stroke-miterlimit="10"/>
<path d="M1436.99 143.19C1436.99 143.19 1007.6 191.638 897.527 397.124C792.853 592.494 357.859 633.038 357.859 633.038" stroke="white" stroke-opacity="0.05" stroke-width="1.64612" stroke-miterlimit="10"/>
<path d="M1436.98 114.598C1436.98 114.598 981.778 165.738 865.106 383.343C754.227 590.356 293.133 633.039 293.133 633.039" stroke="white" stroke-opacity="0.05" stroke-width="1.64612" stroke-miterlimit="10"/>
<path d="M1436.98 86.0039C1436.98 86.0039 955.318 139.766 831.853 369.68C714.486 588.289 226.523 633.038 226.523 633.038" stroke="white" stroke-opacity="0.05" stroke-width="1.64612" stroke-miterlimit="10"/>
<path d="M1437 58.1631C1437 58.1631 929.115 114.474 798.943 356.302C675.27 586.205 160.883 633.038 160.883 633.038" stroke="white" stroke-opacity="0.05" stroke-width="1.64612" stroke-miterlimit="10"/>
<path d="M1437 29.5703C1437 29.5703 902.928 88.4953 766.16 342.6C635.991 584.066 95.2188 633.039 95.2188 633.039" stroke="white" stroke-opacity="0.05" stroke-width="1.64612" stroke-miterlimit="10"/>
<path d="M1436.99 0.976562C1436.99 0.976562 877.213 62.6026 733.746 328.858C597.373 581.999 30.5 633.038 30.5 633.038" stroke="white" stroke-opacity="0.05" stroke-width="1.64612" stroke-miterlimit="10"/>
</svg>
