<svg width="216" height="51" viewBox="0 0 216 51" fill="none" xmlns="http://www.w3.org/2000/svg">
<rect width="216" height="51" fill="none"/>
<g id="Homepage" clip-path="url(#clip0_1_2)">
<rect width="1440" height="9086" transform="translate(-172 -8584)" fill="none"/>
<g id="Footer">
<rect id="Rectangle 543" x="-172" y="-67.4971" width="1443" height="570" fill="none"/>
<g id="Charterag">
<path d="M13.4054 40.9382C10.9229 40.9382 8.82237 40.4991 7.10373 39.6209C5.42328 38.7045 4.04836 37.4063 2.97898 35.7263C1.9096 34.0463 1.14576 32.0226 0.687458 29.6553C0.229153 27.2498 0 24.5388 0 21.5224C0 18.5823 0.229153 15.9096 0.687458 13.5041C1.14576 11.0604 1.89051 8.96035 2.9217 7.20396C3.99107 5.44756 5.38509 4.09208 7.10373 3.13752C8.82237 2.18296 10.8847 1.70568 13.2908 1.70568C15.4678 1.70568 17.301 2.06841 18.7905 2.79388C20.3182 3.51935 21.5212 4.53119 22.3997 5.82939C23.2781 7.12759 23.8701 8.6358 24.1756 10.354C24.5193 12.034 24.5766 13.8477 24.3475 15.795L17.1292 16.7687C17.3201 14.8596 17.2437 13.2368 16.9 11.9004C16.5945 10.564 16.098 9.57127 15.4105 8.92217C14.7612 8.23489 13.9592 7.89125 13.0044 7.89125C12.2024 7.89125 11.4767 8.15852 10.8275 8.69308C10.1782 9.18945 9.62441 9.97219 9.1661 11.0413C8.74599 12.1104 8.42136 13.4659 8.1922 15.1077C7.96305 16.7496 7.84847 18.6778 7.84847 20.8924C7.84847 24.2525 8.05853 26.9443 8.47864 28.968C8.93695 30.9917 9.56712 32.4617 10.3692 33.3781C11.2094 34.2563 12.1833 34.6954 13.2908 34.6954C14.5512 34.6954 15.5251 34.199 16.2125 33.2062C16.9 32.2135 17.3583 30.8771 17.5875 29.1971C17.8548 27.5171 17.9121 25.6843 17.7593 23.6988L25.0349 24.6152C25.3023 27.0207 25.2832 29.2353 24.9776 31.2589C24.6721 33.2444 24.0419 34.9626 23.0871 36.4136C22.1705 37.8645 20.9102 38.9909 19.3061 39.7927C17.702 40.5564 15.7351 40.9382 13.4054 40.9382Z" fill="white"/>
<path d="M27.8447 40.1937V22.6106L27.7874 0.50293H35.4068V6.80304C35.4068 7.64306 35.3686 8.6358 35.2922 9.78128C35.2158 10.9268 35.1012 12.1295 34.9484 13.3895C34.8339 14.6114 34.7002 15.8332 34.5474 17.055C34.3947 18.2387 34.2419 19.3078 34.0891 20.2624H34.9484C35.254 17.5896 35.7314 15.4514 36.3807 13.8477C37.0681 12.2441 37.9274 11.0795 38.9586 10.354C40.028 9.62855 41.2883 9.26582 42.7396 9.26582C45.2985 9.26582 47.1699 10.2967 48.3539 12.3586C49.576 14.3823 50.1871 17.5323 50.1871 21.8088V40.1937H42.3959V22.9542C42.3959 20.5869 42.1668 18.8687 41.7085 17.7996C41.2883 16.7305 40.5627 16.1959 39.5315 16.1959C38.6149 16.1959 37.8511 16.635 37.24 17.5132C36.6671 18.3533 36.247 19.5369 35.9796 21.0642C35.7123 22.5915 35.5786 24.3861 35.5786 26.4479V40.1937H27.8447Z" fill="white"/>
<path d="M59.3416 40.8809C58.043 40.8809 56.8591 40.5946 55.7897 40.0218C54.7203 39.4491 53.861 38.59 53.2117 37.4445C52.5625 36.299 52.2378 34.8863 52.2378 33.2062C52.2378 31.6026 52.5052 30.2662 53.0399 29.1971C53.6127 28.0898 54.3766 27.1925 55.3314 26.5052C56.2862 25.7798 57.3365 25.1879 58.4822 24.7297C59.628 24.2334 60.812 23.7943 62.0341 23.4124C63.1799 23.0306 64.0965 22.6679 64.7839 22.3242C65.5096 21.9806 66.0252 21.5606 66.3307 21.0642C66.6744 20.5678 66.8463 19.8996 66.8463 19.0596C66.8463 17.9142 66.579 17.0169 66.0443 16.3678C65.5478 15.6805 64.7839 15.3368 63.7527 15.3368C62.9889 15.3368 62.3396 15.5659 61.805 16.0241C61.2703 16.4823 60.8692 17.1696 60.6019 18.086C60.3346 18.9642 60.2391 20.0906 60.3155 21.4651L53.0972 20.6633C53.059 18.8305 53.269 17.2078 53.7273 15.795C54.1856 14.3823 54.8731 13.1986 55.7897 12.2441C56.7445 11.2513 57.9094 10.5067 59.2843 10.0104C60.6974 9.514 62.3014 9.26582 64.0965 9.26582C66.5026 9.26582 68.4504 9.72401 69.9399 10.6404C71.4676 11.5186 72.5942 12.8741 73.3199 14.7068C74.0837 16.5014 74.4656 18.7733 74.4656 21.5224V28.7962C74.4656 29.9798 74.4847 31.2399 74.5229 32.5762C74.5611 33.8744 74.5993 35.1726 74.6375 36.4709C74.7139 37.7691 74.7903 39.01 74.8666 40.1937H68.1066C67.9921 38.8954 67.8966 37.6163 67.8202 36.3563C67.782 35.0581 67.7438 33.7408 67.7056 32.4044H67.0182C66.7508 34.199 66.2734 35.7454 65.586 37.0436C64.8985 38.3036 64.0201 39.2582 62.9507 39.9073C61.9195 40.5564 60.7165 40.8809 59.3416 40.8809ZM62.4351 34.6954C63.008 34.6954 63.5236 34.5617 63.9819 34.2945C64.4784 33.989 64.9176 33.5881 65.2995 33.0917C65.6814 32.5571 65.987 31.9462 66.2161 31.2589C66.4835 30.5717 66.6744 29.8462 66.789 29.0825V24.3861L68.3358 24.0997C67.9539 24.5961 67.4574 25.0161 66.8463 25.3597C66.2734 25.7034 65.6624 26.0088 65.0131 26.2761C64.3638 26.5434 63.7146 26.8298 63.0653 27.1352C62.416 27.4025 61.8431 27.7271 61.3466 28.1089C60.8501 28.4525 60.43 28.9107 60.0863 29.4835C59.7808 30.018 59.628 30.6862 59.628 31.488C59.628 32.5953 59.8953 33.4163 60.43 33.9508C61.0029 34.4472 61.6713 34.6954 62.4351 34.6954Z" fill="white"/>
<path d="M77.8062 40.1937V23.8134L77.749 10.0104H84.3944L84.3371 21.2933H85.1964C85.311 18.3914 85.6738 16.0814 86.2849 14.3632C86.9342 12.645 87.7935 11.404 88.8629 10.6404C89.9322 9.87674 91.1353 9.49491 92.472 9.49491C92.7393 9.49491 93.0067 9.514 93.274 9.55219C93.5414 9.59037 93.8278 9.66673 94.1334 9.78128L93.7896 18.4296C93.4841 18.2769 93.1404 18.1814 92.7584 18.1432C92.4147 18.0669 92.071 18.0287 91.7273 18.0287C90.6197 18.0287 89.6076 18.3914 88.691 19.1169C87.8126 19.8042 87.106 20.8542 86.5713 22.267C86.0366 23.6797 85.7502 25.4743 85.712 27.6507V40.1937H77.8062Z" fill="white"/>
<path d="M106.148 40.7091C103.284 40.7091 101.088 39.9073 99.5601 38.3036C98.0706 36.6618 97.3258 34.1417 97.3258 30.7435V16.0814H94.6333L94.6906 10.4686H95.8936C97.1922 10.4304 98.1088 10.144 98.6435 9.60946C99.1782 9.0749 99.5219 8.1967 99.6747 6.97486L100.076 3.93936H104.831V10.0104H109.815V16.2532H104.831V29.4262C104.831 30.8008 105.079 31.8126 105.575 32.4617C106.072 33.1108 106.74 33.4353 107.58 33.4353C107.962 33.4353 108.344 33.3972 108.726 33.3208C109.146 33.2062 109.547 33.0344 109.929 32.8053V40.1364C109.242 40.3273 108.592 40.4609 107.981 40.5373C107.37 40.6518 106.759 40.7091 106.148 40.7091Z" fill="white"/>
<path d="M123.049 40.9382C120.796 40.9382 118.905 40.5564 117.378 39.7927C115.85 39.0291 114.609 37.9791 113.654 36.6427C112.737 35.2681 112.069 33.6453 111.649 31.7744C111.267 29.9035 111.076 27.8607 111.076 25.6461C111.076 23.5079 111.267 21.4651 111.649 19.5178C112.031 17.5705 112.661 15.8332 113.539 14.3059C114.418 12.7404 115.602 11.5186 117.091 10.6404C118.581 9.72401 120.433 9.26582 122.648 9.26582C124.71 9.26582 126.467 9.68582 127.919 10.5258C129.37 11.3277 130.516 12.4731 131.356 13.9623C132.196 15.4132 132.75 17.1696 133.017 19.2315C133.285 21.2551 133.285 23.4697 133.017 25.8752L116.404 26.2761V22.3242L127.117 22.0379L125.914 24.3288C126.104 22.2288 126.085 20.5297 125.856 19.2315C125.627 17.8951 125.245 16.9214 124.71 16.3105C124.176 15.6996 123.488 15.3941 122.648 15.3941C121.693 15.3941 120.929 15.7759 120.357 16.5396C119.784 17.2651 119.364 18.3342 119.096 19.7469C118.829 21.1597 118.695 22.897 118.695 24.9588C118.695 28.4334 119.039 30.9917 119.726 32.6335C120.414 34.2754 121.502 35.0963 122.992 35.0963C123.641 35.0963 124.176 34.9626 124.596 34.6954C125.054 34.3899 125.417 33.9699 125.684 33.4353C125.952 32.9008 126.143 32.2708 126.257 31.5453C126.372 30.8198 126.41 30.018 126.372 29.1398L133.361 29.8271C133.476 31.1253 133.399 32.4426 133.132 33.779C132.864 35.0772 132.349 36.2799 131.585 37.3872C130.821 38.4563 129.733 39.3155 128.32 39.9646C126.945 40.6137 125.188 40.9382 123.049 40.9382Z" fill="white"/>
<path d="M136.021 40.1937V23.8134L135.964 10.0104H142.609L142.552 21.2933H143.411C143.526 18.3914 143.888 16.0814 144.499 14.3632C145.149 12.645 146.008 11.404 147.077 10.6404C148.147 9.87674 149.35 9.49491 150.687 9.49491C150.954 9.49491 151.221 9.514 151.489 9.55219C151.756 9.59037 152.042 9.66673 152.348 9.78128L152.004 18.4296C151.699 18.2769 151.355 18.1814 150.973 18.1432C150.629 18.0669 150.286 18.0287 149.942 18.0287C148.834 18.0287 147.822 18.3914 146.906 19.1169C146.027 19.8042 145.321 20.8542 144.786 22.267C144.251 23.6797 143.965 25.4743 143.927 27.6507V40.1937H136.021Z" fill="white"/>
<path d="M162.827 40.9382C157.843 40.9382 154.234 38.0745 154.234 32.4617C154.234 26.1043 158.988 24.0997 168.384 22.7252C172.222 22.2097 173.941 21.866 173.941 19.4605C173.941 17.1123 172.337 15.1077 168.727 15.1077C165.405 15.1077 162.254 16.826 161.452 20.7206L154.978 18.716C156.582 12.7022 161.509 9.49491 168.899 9.49491C177.206 9.49491 181.102 13.5041 181.102 22.3242V27.9371C181.102 31.8317 181.331 36.299 181.789 40.1937H175.316C174.972 38.1318 174.743 35.6117 174.628 33.0344H173.712C172.107 37.3872 168.384 40.9382 162.827 40.9382ZM165.691 35.6118C168.67 35.6118 172.222 33.5499 174.113 29.2544L174.055 25.2452C169.472 27.3071 161.223 25.9898 161.223 31.488C161.223 34.0654 163.056 35.6118 165.691 35.6118Z" fill="white"/>
<path d="M199.386 50.5029C189.59 50.5029 185.294 48.3265 185.294 43.8592C185.294 40.3655 188.043 37.96 193.6 37.4445V36.299C189.476 36.3563 187.299 35.4972 187.299 33.3208C187.299 31.2589 189.246 29.6553 194.116 28.5671V27.4216C189.476 27.1925 186.726 24.2715 186.726 19.9187C186.726 14.1914 191.595 9.9531 200.647 9.9531H215.484V15.6805L206.089 14.3059V15.5659C210.787 16.3105 213.021 18.1432 213.021 21.4651C213.021 26.2188 208.323 29.4262 200.36 29.4262C199.329 29.4262 198.527 29.3689 196.064 29.0825C194.402 30.228 193.371 31.0871 193.371 31.8317C193.371 32.8626 195.434 33.149 197.21 33.149H205.173C208.209 33.149 216 33.3781 216 41.11C216 47.6392 210.443 50.5029 199.386 50.5029ZM200.188 25.4743C204.199 25.4743 206.261 23.4124 206.261 20.3769C206.261 17.1123 204.141 14.7641 200.131 14.7641C196.121 14.7641 193.887 17.055 193.887 20.2624C193.887 23.2979 196.064 25.4743 200.188 25.4743ZM200.017 44.661C207.12 44.661 209.641 43.5155 209.641 40.7091C209.641 37.33 205.917 37.33 204.256 37.33H197.21C193.6 37.8454 192.225 39.5064 192.225 41.3964C192.225 44.1455 195.09 44.661 200.017 44.661Z" fill="white"/>
</g>
</g>
</g>
<defs>
<clipPath id="clip0_1_2">
<rect width="1440" height="9086" fill="white" transform="translate(-172 -8584)"/>
</clipPath>
</defs>
</svg>
