<svg width="58" height="43" viewBox="0 0 58 43" fill="none" xmlns="http://www.w3.org/2000/svg">
<g id="facebook-3-2 1">
<path id="Vector" d="M21.4049 42.013C32.8808 42.013 42.1839 32.7099 42.1839 21.234C42.1839 9.75813 32.8808 0.455078 21.4049 0.455078C9.92903 0.455078 0.625977 9.75813 0.625977 21.234C0.625977 32.7099 9.92903 42.013 21.4049 42.013Z" fill="white"/>
<path id="Vector_2" d="M28.1629 6.83301H23.5599C20.8283 6.83301 17.79 7.98188 17.79 11.9415C17.8033 13.3211 17.79 14.6424 17.79 16.1295H14.6299V21.1581H17.8878V35.6348H23.8743V21.0626H27.8256L28.1831 16.1154H23.7711C23.7711 16.1154 23.781 13.9146 23.7711 13.2755C23.7711 11.7108 25.3993 11.8004 25.4972 11.8004C26.272 11.8004 27.7785 11.8027 28.1652 11.8004V6.83301H28.1629Z" fill="#062949"/>
</g>
</svg>
