<svg width="43" height="43" viewBox="0 0 43 43" fill="none" xmlns="http://www.w3.org/2000/svg">
<g id="Google__G__logo 1">
<g id="Group 205">
<path id="Vector" d="M39.5667 21.6451C39.5667 20.2944 39.4455 18.9958 39.2204 17.749H21.2812V25.1256H31.5322C31.082 27.4978 29.7314 29.5064 27.7054 30.8571V35.6536H33.8871C37.4888 32.3289 39.5667 27.4459 39.5667 21.6451Z" fill="white"/>
<path id="Vector_2" d="M21.2815 40.2577C26.4242 40.2577 30.7359 38.5608 33.8874 35.6517L27.7056 30.8553C26.0087 31.9981 23.8442 32.6907 21.2815 32.6907C16.3291 32.6907 12.1214 29.3488 10.6149 24.8467H4.27734V29.7644C7.4115 35.9807 13.8357 40.2577 21.2815 40.2577Z" fill="white"/>
<path id="Vector_3" d="M10.6152 24.8315C10.2343 23.6886 10.0092 22.4765 10.0092 21.2125C10.0092 19.9484 10.2343 18.7363 10.6152 17.5935V12.6758H4.27764C2.97895 15.2385 2.23438 18.1303 2.23438 21.2125C2.23438 24.2947 2.97895 27.1864 4.27764 29.7492L9.21264 25.905L10.6152 24.8315Z" fill="white"/>
<path id="Vector_4" d="M21.2815 9.74838C24.0866 9.74838 26.5801 10.7181 28.5714 12.5882L34.0259 7.1337C30.7186 4.05148 26.4242 2.16406 21.2815 2.16406C13.8357 2.16406 7.4115 6.44106 4.27734 12.6748L10.6149 17.5924C12.1214 13.0903 16.3291 9.74838 21.2815 9.74838Z" fill="white"/>
</g>
</g>
</svg>
