<svg width="1440" height="1310" viewBox="0 0 1440 1310" fill="none" xmlns="http://www.w3.org/2000/svg">
<g opacity="0.05">
<path d="M-673.004 678.722C-522.452 631.862 -607.275 603.374 -456.723 556.514C-306.171 509.655 -221.348 538.144 -70.8399 491.298C79.6687 444.453 -5.111 415.95 145.441 369.091C295.993 322.232 380.816 350.721 531.368 303.861C681.919 257.002 597.096 228.513 747.692 181.641C898.287 134.768 983.067 163.27 1133.62 116.411" stroke="#062949" stroke-width="1.2" stroke-miterlimit="10"/>
<path d="M1013.86 1236.17C1164.41 1189.31 1079.59 1160.82 1230.14 1113.96C1380.69 1067.1 1465.52 1095.59 1616.03 1048.74C1766.53 1001.9 1681.75 973.396 1832.31 926.537C1982.86 879.678 2067.68 908.166 2218.23 861.307C2368.78 814.448 2283.96 785.959 2434.56 739.086C2585.15 692.214 2669.93 720.716 2820.48 673.857" stroke="#062949" stroke-width="1.2" stroke-miterlimit="10"/>
<path d="M-42.9134 880.135C107.638 833.276 22.8155 804.787 173.367 757.928C323.919 711.069 408.742 739.557 559.251 692.712C709.759 645.866 624.98 617.364 775.532 570.504C926.083 523.645 1010.91 552.134 1161.46 505.275C1312.01 458.416 1227.19 429.927 1377.78 383.054C1528.38 336.181 1613.16 364.684 1763.71 317.824" stroke="#062949" stroke-width="1.2" stroke-miterlimit="10"/>
<path d="M494.429 1060.84C644.981 1013.98 560.158 985.488 710.71 938.629C861.262 891.769 946.085 920.258 1096.59 873.413C1247.1 826.567 1162.32 798.065 1312.87 751.205C1463.43 704.346 1548.25 732.835 1698.8 685.976C1849.35 639.117 1764.53 610.628 1915.12 563.755C2065.72 516.882 2150.5 545.385 2301.05 498.525" stroke="#062949" stroke-width="1.2" stroke-miterlimit="10"/>
<path d="M-578.243 705.382C-427.691 658.522 -512.514 630.034 -361.963 583.174C-211.411 536.315 -126.588 564.804 23.9209 517.958C174.429 471.112 89.6497 442.61 240.202 395.751C390.753 348.892 475.576 377.381 626.128 330.521C776.68 283.662 691.857 255.173 842.452 208.301C993.048 161.428 1077.83 189.93 1228.38 143.071" stroke="#062949" stroke-width="1.2" stroke-miterlimit="10"/>
<path d="M737.191 1149.85C887.743 1102.99 802.92 1074.5 953.472 1027.65C1104.02 980.786 1188.85 1009.27 1339.36 962.429C1489.86 915.583 1405.08 887.081 1555.64 840.222C1706.19 793.362 1791.01 821.851 1941.56 774.992C2092.11 728.133 2007.29 699.644 2157.89 652.771C2308.48 605.899 2393.26 634.401 2543.81 587.542" stroke="#062949" stroke-width="1.2" stroke-miterlimit="10"/>
<path d="M-317.798 794.527C-167.246 747.668 -252.069 719.179 -101.517 672.32C49.0346 625.461 133.858 653.95 284.366 607.104C434.875 560.258 350.095 531.756 500.647 484.897C651.199 438.037 736.022 466.526 886.574 419.667C1037.13 372.808 952.303 344.319 1102.9 297.446C1253.49 250.574 1338.27 279.076 1488.82 232.217" stroke="#062949" stroke-width="1.2" stroke-miterlimit="10"/>
<path d="M217.76 974.523C368.312 927.664 283.489 899.175 434.041 852.316C584.592 805.456 669.416 833.945 819.924 787.099C970.433 740.254 885.653 711.751 1036.2 664.892C1186.76 618.033 1271.58 646.522 1422.13 599.663C1572.68 552.803 1487.86 524.315 1638.46 477.442C1789.05 430.569 1873.83 459.071 2024.38 412.212" stroke="#062949" stroke-width="1.2" stroke-miterlimit="10"/>
<path d="M-854.912 619.069C-704.361 572.209 -789.184 543.721 -638.632 496.861C-488.08 450.002 -403.257 478.491 -252.748 431.645C-102.24 384.8 -187.019 356.297 -36.4676 309.438C114.084 262.579 198.907 291.068 349.459 244.208C500.011 197.349 415.188 168.86 565.783 121.988C716.378 75.115 801.158 103.617 951.71 56.7581" stroke="#062949" stroke-width="1.2" stroke-miterlimit="10"/>
<path d="M1062.87 1248.18C1213.42 1201.32 1128.6 1172.83 1279.15 1125.97C1429.7 1079.11 1514.53 1107.6 1665.04 1060.75C1815.54 1013.91 1730.76 985.405 1881.32 938.545C2031.87 891.686 2116.69 920.175 2267.24 873.316C2417.79 826.456 2332.97 797.968 2483.57 751.095C2634.16 704.222 2718.94 732.725 2869.49 685.865" stroke="#062949" stroke-width="1.2" stroke-miterlimit="10"/>
<path d="M6.11218 892.143C156.664 845.284 71.841 816.795 222.393 769.936C372.945 723.076 457.768 751.565 608.276 704.719C758.785 657.874 674.005 629.371 824.557 582.512C975.109 535.653 1059.93 564.142 1210.48 517.283C1361.04 470.423 1276.21 441.935 1426.81 395.062C1577.4 348.189 1662.18 376.691 1812.73 329.832" stroke="#062949" stroke-width="1.2" stroke-miterlimit="10"/>
<path d="M543.439 1072.85C693.991 1025.99 609.168 997.498 759.72 950.639C910.272 903.78 995.095 932.269 1145.6 885.423C1296.11 838.577 1211.33 810.075 1361.88 763.216C1512.44 716.357 1597.26 744.845 1747.81 697.986C1898.36 651.127 1813.54 622.638 1964.13 575.765C2114.73 528.893 2199.51 557.395 2350.06 510.536" stroke="#062949" stroke-width="1.2" stroke-miterlimit="10"/>
<path d="M-529.221 717.39C-378.669 670.531 -463.492 642.042 -312.941 595.183C-162.389 548.324 -77.5657 576.812 72.9429 529.967C223.451 483.121 138.672 454.619 289.224 407.76C439.775 360.9 524.598 389.389 675.15 342.53C825.702 295.671 740.879 267.182 891.474 220.309C1042.07 173.437 1126.85 201.939 1277.4 155.08" stroke="#062949" stroke-width="1.2" stroke-miterlimit="10"/>
<path d="M786.209 1161.86C936.76 1115 851.937 1086.51 1002.49 1039.65C1153.04 992.796 1237.86 1021.28 1388.37 974.439C1538.88 927.593 1454.1 899.091 1604.65 852.231C1755.21 805.372 1840.03 833.861 1990.58 787.002C2141.13 740.143 2056.31 711.654 2206.9 664.781C2357.5 617.908 2442.28 646.411 2592.83 599.552" stroke="#062949" stroke-width="1.2" stroke-miterlimit="10"/>
<path d="M-268.776 806.536C-118.225 759.677 -203.048 731.188 -52.4958 684.329C98.0561 637.469 182.879 665.958 333.388 619.112C483.896 572.267 399.117 543.764 549.668 496.905C700.22 450.046 785.043 478.535 935.595 431.676C1086.15 384.816 1001.32 356.328 1151.92 309.455C1302.51 262.582 1387.29 291.084 1537.85 244.225" stroke="#062949" stroke-width="1.2" stroke-miterlimit="10"/>
<path d="M266.766 986.532C417.318 939.672 332.495 911.184 483.047 864.324C633.599 817.465 718.422 845.954 868.93 799.108C1019.44 752.263 934.659 723.76 1085.21 676.901C1235.76 630.042 1320.59 658.531 1471.14 611.671C1621.69 564.812 1536.87 536.323 1687.46 489.451C1838.06 442.578 1922.84 471.08 2073.39 424.221" stroke="#062949" stroke-width="1.2" stroke-miterlimit="10"/>
<path d="M-805.895 631.077C-655.343 584.218 -740.166 555.729 -589.614 508.87C-439.063 462.011 -354.24 490.5 -203.731 443.654C-53.2224 396.808 -138.002 368.306 12.5498 321.447C163.102 274.587 247.925 303.076 398.476 256.217C549.028 209.358 464.205 180.869 614.801 133.996C765.396 87.1235 850.175 115.626 1000.73 68.7666" stroke="#062949" stroke-width="1.2" stroke-miterlimit="10"/>
<path d="M1153.35 1281.58C1303.9 1234.72 1219.08 1206.23 1369.63 1159.37C1520.18 1112.51 1605 1141 1755.51 1094.15C1906.02 1047.3 1821.24 1018.8 1971.79 971.943C2122.34 925.083 2207.17 953.572 2357.72 906.713C2508.27 859.853 2423.45 831.364 2574.04 784.491C2724.64 737.618 2809.42 766.12 2959.97 719.261" stroke="#062949" stroke-width="1.2" stroke-miterlimit="10"/>
<path d="M96.5844 925.543C247.136 878.684 162.313 850.195 312.865 803.336C463.417 756.477 548.24 784.966 698.749 738.12C849.257 691.274 764.477 662.772 915.029 615.913C1065.58 569.054 1150.4 597.542 1300.96 550.683C1451.51 503.824 1366.68 475.335 1517.28 428.463C1667.88 381.59 1752.65 410.092 1903.21 363.233" stroke="#062949" stroke-width="1.2" stroke-miterlimit="10"/>
<path d="M616.236 1106.12C766.788 1059.26 681.965 1030.77 832.516 983.91C983.068 937.051 1067.89 965.54 1218.4 918.694C1368.91 871.848 1284.13 843.346 1434.68 796.487C1585.23 749.627 1670.06 778.116 1820.61 731.257C1971.16 684.398 1886.34 655.909 2036.93 609.036C2187.53 562.164 2272.31 590.666 2422.86 543.807" stroke="#062949" stroke-width="1.2" stroke-miterlimit="10"/>
<path d="M-438.745 750.791C-288.194 703.932 -373.017 675.443 -222.465 628.584C-71.9129 581.724 12.9101 610.213 163.419 563.367C313.927 516.522 229.148 488.019 379.699 441.16C530.251 394.301 615.074 422.79 765.626 375.931C916.178 329.071 831.355 300.583 981.95 253.71C1132.55 206.837 1217.33 235.339 1367.88 188.48" stroke="#062949" stroke-width="1.2" stroke-miterlimit="10"/>
<path d="M876.677 1195.26C1027.23 1148.4 942.406 1119.91 1092.96 1073.05C1243.51 1026.2 1328.33 1054.68 1478.84 1007.84C1629.35 960.993 1544.57 932.49 1695.12 885.631C1845.67 838.772 1930.5 867.261 2081.05 820.402C2231.6 773.542 2146.78 745.054 2297.37 698.181C2447.97 651.308 2532.75 679.811 2683.3 632.951" stroke="#062949" stroke-width="1.2" stroke-miterlimit="10"/>
<path d="M-180.084 839.229C-29.5324 792.37 -114.355 763.881 36.1964 717.022C186.748 670.163 271.571 698.652 422.08 651.806C572.588 604.96 487.809 576.458 638.361 529.599C788.912 482.74 873.735 511.229 1024.29 464.369C1174.84 417.51 1090.02 389.021 1240.61 342.149C1391.21 295.276 1475.99 323.778 1626.54 276.919" stroke="#062949" stroke-width="1.2" stroke-miterlimit="10"/>
<path d="M357.242 1019.93C507.794 973.073 422.971 944.584 573.523 897.725C724.075 850.866 808.898 879.355 959.406 832.509C1109.91 785.663 1025.14 757.161 1175.69 710.302C1326.24 663.442 1411.06 691.931 1561.61 645.072C1712.17 598.213 1627.34 569.724 1777.94 522.851C1928.53 475.979 2013.31 504.481 2163.86 457.622" stroke="#062949" stroke-width="1.2" stroke-miterlimit="10"/>
<path d="M-715.423 664.478C-564.871 617.619 -649.694 589.13 -499.142 542.271C-348.59 495.412 -263.767 523.9 -113.259 477.055C37.25 430.209 -47.5297 401.707 103.022 354.848C253.574 307.988 338.397 336.477 488.949 289.618C639.501 242.759 554.678 214.27 705.273 167.397C855.868 120.525 940.648 149.027 1091.2 102.168" stroke="#062949" stroke-width="1.2" stroke-miterlimit="10"/>
<path d="M971.438 1221.92C1121.99 1175.06 1037.17 1146.57 1187.72 1099.71C1338.27 1052.86 1423.09 1081.34 1573.6 1034.5C1724.11 987.653 1639.33 959.15 1789.88 912.291C1940.43 865.432 2025.26 893.921 2175.81 847.062C2326.36 800.202 2241.54 771.714 2392.13 724.841C2542.73 677.968 2627.51 706.47 2778.06 659.611" stroke="#062949" stroke-width="1.2" stroke-miterlimit="10"/>
<path d="M-85.3126 865.889C65.2393 819.03 -19.5837 790.541 130.968 743.682C281.52 696.823 366.343 725.312 516.852 678.466C667.36 631.62 582.58 603.118 733.132 556.259C883.684 509.399 968.507 537.888 1119.06 491.029C1269.61 444.17 1184.79 415.681 1335.38 368.808C1485.98 321.936 1570.76 350.438 1721.31 303.579" stroke="#062949" stroke-width="1.2" stroke-miterlimit="10"/>
<path d="M452.011 1046.59C602.562 999.733 517.739 971.244 668.291 924.385C818.843 877.526 903.666 906.015 1054.17 859.169C1204.68 812.323 1119.9 783.821 1270.46 736.962C1421.01 690.102 1505.83 718.591 1656.38 671.732C1806.93 624.873 1722.11 596.384 1872.71 549.511C2023.3 502.639 2108.08 531.141 2258.63 484.282" stroke="#062949" stroke-width="1.2" stroke-miterlimit="10"/>
<path d="M-620.65 691.138C-470.098 644.279 -554.921 615.79 -404.37 568.931C-253.818 522.071 -168.995 550.56 -18.4861 503.714C132.022 456.869 47.2428 428.366 197.795 381.507C348.346 334.648 433.169 363.137 583.721 316.278C734.273 269.418 649.45 240.93 800.045 194.057C950.641 147.184 1035.42 175.686 1185.97 128.827" stroke="#062949" stroke-width="1.2" stroke-miterlimit="10"/>
<path d="M694.776 1135.61C845.328 1088.75 760.505 1060.26 911.056 1013.4C1061.61 966.541 1146.43 995.03 1296.94 948.184C1447.45 901.339 1362.67 872.836 1513.22 825.977C1663.77 779.118 1748.6 807.607 1899.15 760.748C2049.7 713.888 1964.88 685.4 2115.47 638.527C2266.07 591.654 2350.85 620.156 2501.4 573.297" stroke="#062949" stroke-width="1.2" stroke-miterlimit="10"/>
<path d="M-360.205 780.282C-209.653 733.422 -294.476 704.934 -143.924 658.074C6.62752 611.215 91.4505 639.704 241.959 592.858C392.468 546.013 307.688 517.51 458.24 470.651C608.792 423.792 693.615 452.281 844.166 405.421C994.718 358.562 909.895 330.073 1060.49 283.201C1211.09 236.328 1295.87 264.83 1446.42 217.971" stroke="#062949" stroke-width="1.2" stroke-miterlimit="10"/>
<path d="M175.341 960.277C325.893 913.418 241.07 884.929 391.622 838.07C542.174 791.211 626.997 819.7 777.505 772.854C928.014 726.008 843.234 697.506 993.786 650.647C1144.34 603.787 1229.16 632.276 1379.71 585.417C1530.26 538.558 1445.44 510.069 1596.04 463.196C1746.63 416.324 1831.41 444.826 1981.96 397.967" stroke="#062949" stroke-width="1.2" stroke-miterlimit="10"/>
<path d="M-897.343 604.826C-746.792 557.966 -831.615 529.478 -681.063 482.618C-530.511 435.759 -445.688 464.248 -295.179 417.402C-144.671 370.557 -229.45 342.054 -78.8985 295.195C71.6534 248.336 156.476 276.825 307.028 229.965C457.58 183.106 372.757 154.617 523.352 107.745C673.947 60.8721 758.727 89.3743 909.279 42.5151" stroke="#062949" stroke-width="1.2" stroke-miterlimit="10"/>
<path d="M399.653 1034.18C550.205 987.317 465.382 958.828 615.934 911.969C766.486 865.11 851.309 893.598 1001.82 846.753C1152.33 799.907 1067.55 771.405 1218.1 724.545C1368.65 677.686 1453.47 706.175 1604.02 659.316C1754.58 612.457 1669.75 583.968 1820.35 537.095C1970.94 490.222 2055.72 518.725 2206.28 471.866" stroke="#062949" stroke-width="1.2" stroke-miterlimit="10"/>
<path d="M1195.75 1295.82C1346.31 1248.96 1261.48 1220.47 1412.03 1173.61C1562.59 1126.75 1647.41 1155.24 1797.92 1108.4C1948.43 1061.55 1863.65 1033.05 2014.2 986.187C2164.75 939.328 2249.57 967.817 2400.12 920.957C2550.68 874.098 2465.85 845.609 2616.45 798.736C2767.04 751.862 2851.82 780.365 3002.37 733.505" stroke="#062949" stroke-width="1.2" stroke-miterlimit="10"/>
<path d="M138.999 939.787C289.551 892.928 204.728 864.439 355.28 817.58C505.832 770.721 590.655 799.209 741.164 752.364C891.672 705.518 806.892 677.016 957.444 630.157C1108 583.297 1192.82 611.786 1343.37 564.927C1493.92 518.068 1409.1 489.579 1559.7 442.706C1710.29 395.833 1795.07 424.336 1945.62 377.477" stroke="#062949" stroke-width="1.2" stroke-miterlimit="10"/>
<path d="M658.647 1120.36C809.199 1073.5 724.376 1045.01 874.928 998.156C1025.48 951.296 1110.3 979.785 1260.81 932.94C1411.32 886.094 1326.54 857.592 1477.09 810.732C1627.64 763.873 1712.47 792.362 1863.02 745.503C2013.57 698.644 1928.75 670.155 2079.34 623.282C2229.94 576.409 2314.72 604.912 2465.27 558.052" stroke="#062949" stroke-width="1.2" stroke-miterlimit="10"/>
<path d="M-396.334 765.035C-245.782 718.176 -330.605 689.687 -180.054 642.828C-29.5018 595.968 55.3213 624.457 205.83 577.612C356.338 530.766 271.559 502.264 422.111 455.404C572.662 408.545 657.485 437.034 808.037 390.175C958.589 343.315 873.766 314.827 1024.36 267.954C1174.96 221.081 1259.74 249.584 1410.29 202.724" stroke="#062949" stroke-width="1.2" stroke-miterlimit="10"/>
<path d="M919.088 1209.51C1069.64 1162.65 984.817 1134.16 1135.37 1087.3C1285.92 1040.44 1370.74 1068.93 1521.25 1022.08C1671.76 975.238 1586.98 946.735 1737.53 899.876C1888.08 853.017 1972.91 881.506 2123.46 834.646C2274.01 787.787 2189.19 759.298 2339.78 712.426C2490.38 665.553 2575.16 694.055 2725.71 647.196" stroke="#062949" stroke-width="1.2" stroke-miterlimit="10"/>
<path d="M-137.674 853.475C12.878 806.616 -71.945 778.127 78.6068 731.268C229.159 684.409 313.982 712.897 464.49 666.052C614.999 619.206 530.219 590.704 680.771 543.844C831.323 496.985 916.146 525.474 1066.7 478.615C1217.25 431.756 1132.43 403.267 1283.02 356.394C1433.62 309.521 1518.4 338.024 1668.95 291.165" stroke="#062949" stroke-width="1.2" stroke-miterlimit="10"/>
<path d="M1105.29 1262.42C1255.84 1215.56 1171.02 1187.07 1321.57 1140.21C1472.12 1093.35 1556.95 1121.84 1707.46 1075C1857.96 1028.15 1773.18 999.647 1923.74 952.787C2074.29 905.928 2159.11 934.417 2309.66 887.557C2460.21 840.698 2375.39 812.209 2525.99 765.336C2676.58 718.462 2761.36 746.965 2911.91 700.105" stroke="#062949" stroke-width="1.2" stroke-miterlimit="10"/>
<path d="M48.5194 906.388C199.071 859.529 114.248 831.04 264.8 784.181C415.352 737.322 500.175 765.811 650.684 718.965C801.192 672.119 716.412 643.617 866.964 596.758C1017.52 549.898 1102.34 578.387 1252.89 531.528C1403.44 484.669 1318.62 456.18 1469.22 409.307C1619.81 362.435 1704.59 390.937 1855.14 344.078" stroke="#062949" stroke-width="1.2" stroke-miterlimit="10"/>
<path d="M585.85 1087.09C736.402 1040.23 651.579 1011.74 802.131 964.884C952.683 918.024 1037.51 946.513 1188.01 899.668C1338.52 852.822 1253.74 824.319 1404.3 777.46C1554.85 730.601 1639.67 759.09 1790.22 712.231C1940.77 665.371 1855.95 636.883 2006.55 590.01C2157.14 543.137 2241.92 571.64 2392.47 524.78" stroke="#062949" stroke-width="1.2" stroke-miterlimit="10"/>
<path d="M-486.811 731.635C-336.259 684.776 -421.082 656.287 -270.53 609.428C-119.978 562.568 -35.155 591.057 115.354 544.212C265.862 497.366 181.082 468.863 331.634 422.004C482.186 375.145 567.009 403.634 717.561 356.775C868.113 309.915 783.29 281.427 933.885 234.554C1084.48 187.681 1169.26 216.184 1319.81 169.324" stroke="#062949" stroke-width="1.2" stroke-miterlimit="10"/>
<path d="M828.612 1176.11C979.164 1129.25 894.341 1100.76 1044.89 1053.9C1195.44 1007.04 1280.27 1035.53 1430.78 988.684C1581.28 941.839 1496.51 913.336 1647.06 866.477C1797.61 819.618 1882.43 848.107 2032.98 801.248C2183.54 754.388 2098.71 725.899 2249.31 679.027C2399.9 632.154 2484.68 660.656 2635.23 613.797" stroke="#062949" stroke-width="1.2" stroke-miterlimit="10"/>
<path d="M-226.365 820.779C-75.813 773.919 -160.636 745.431 -10.0841 698.571C140.468 651.712 225.291 680.201 375.799 633.355C526.308 586.509 441.528 558.007 592.08 511.148C742.632 464.289 827.455 492.778 978.007 445.918C1128.56 399.059 1043.74 370.57 1194.33 323.698C1344.93 276.825 1429.71 305.327 1580.26 258.468" stroke="#062949" stroke-width="1.2" stroke-miterlimit="10"/>
<path d="M309.177 1000.78C459.729 953.918 374.906 925.429 525.458 878.57C676.009 831.711 760.832 860.2 911.341 813.354C1061.85 766.508 977.07 738.006 1127.62 691.147C1278.17 644.287 1363 672.776 1513.55 625.917C1664.1 579.058 1579.28 550.569 1729.87 503.696C1880.47 456.824 1965.25 485.326 2115.8 438.467" stroke="#062949" stroke-width="1.2" stroke-miterlimit="10"/>
<path d="M-763.507 645.323C-612.955 598.464 -697.778 569.975 -547.226 523.116C-396.674 476.256 -311.851 504.745 -161.343 457.899C-10.8342 411.054 -95.6139 382.551 54.9379 335.692C205.49 288.833 290.313 317.322 440.865 270.463C591.416 223.603 506.594 195.115 657.189 148.242C807.784 101.369 892.564 129.871 1043.12 83.0122" stroke="#062949" stroke-width="1.2" stroke-miterlimit="10"/>
</g>
</svg>
