<svg width="13" height="13" viewBox="0 0 13 13" fill="none" xmlns="http://www.w3.org/2000/svg">
<g id="social">
<path id="instagram" fill-rule="evenodd" clip-rule="evenodd" d="M6.36744 0.50293C4.7388 0.50293 4.53397 0.50293 3.8945 0.537973C3.26003 0.568011 2.8204 0.668136 2.44571 0.818324C2.04604 0.968512 1.70632 1.17877 1.3716 1.50418C1.05187 1.85462 0.847041 2.18503 0.69217 2.58053C0.542295 2.961 0.442378 3.40155 0.412403 4.03234C0.372437 4.68316 0.372437 4.88341 0.372437 6.51044C0.372437 8.13747 0.372437 8.34774 0.407407 8.98854C0.437382 9.62433 0.537299 10.0649 0.687174 10.4404C0.837049 10.8409 1.04687 11.1763 1.3766 11.5117C1.72631 11.8221 2.06603 12.0273 2.4607 12.1825C2.84038 12.3327 3.28001 12.4328 3.90949 12.4629C4.55895 12.4979 4.75878 12.5029 6.38742 12.5029H6.38754C8.01608 12.5029 8.22591 12.5029 8.86536 12.4629C9.49483 12.4328 9.93447 12.3327 10.3142 12.1825C10.7138 12.0323 11.0435 11.8221 11.3783 11.4917C11.703 11.1512 11.9078 10.8158 12.0627 10.4203C12.2126 10.0399 12.3125 9.5993 12.3375 8.96851C12.3674 8.3177 12.3724 8.11745 12.3724 6.48541V6.48527C12.3724 4.85336 12.3724 4.64809 12.3375 4.00731C12.3075 3.38153 12.2076 2.94098 12.0577 2.5555C11.9078 2.15499 11.688 1.82959 11.3583 1.49417C11.0136 1.15374 10.6888 0.953493 10.2942 0.803305C9.91449 0.653117 9.47485 0.552992 8.84538 0.517948C8.20091 0.50293 8.00108 0.50293 6.36744 0.50293ZM6.36777 1.58434C7.96644 1.58434 8.15628 1.58434 8.79075 1.61938C9.37526 1.64942 9.69 1.74454 9.90482 1.82965C10.1846 1.92977 10.3844 2.06494 10.5942 2.28021C10.8041 2.48046 10.934 2.68071 11.0439 2.96607C11.1238 3.18134 11.2187 3.49673 11.2437 4.08246C11.2787 4.71826 11.2837 4.9085 11.2837 6.5105C11.2837 8.1125 11.2837 8.30274 11.2487 8.93853C11.2187 9.52427 11.1238 9.83966 11.0389 10.0549C10.939 10.3353 10.8041 10.5355 10.5893 10.7458C10.3894 10.9561 10.1896 11.0862 9.90482 11.1964C9.69 11.2765 9.37526 11.3716 8.79075 11.3966C8.15628 11.4317 7.96644 11.4367 6.36777 11.4367C4.7691 11.4367 4.57926 11.4367 3.94479 11.4016C3.36028 11.3716 3.04554 11.2765 2.83072 11.1914C2.55095 11.0912 2.35112 10.9561 2.14129 10.7408C1.93147 10.5405 1.80158 10.3403 1.69167 10.0549C1.61173 9.83966 1.51681 9.52427 1.49183 8.93853C1.45686 8.30274 1.45187 8.1125 1.45187 6.5105C1.45187 4.9085 1.45187 4.71826 1.48684 4.08246C1.51681 3.49673 1.61173 3.18134 1.69666 2.96607C1.79658 2.68572 1.93147 2.48547 2.14629 2.2752C2.34612 2.06494 2.54596 1.93478 2.83072 1.82464C3.04554 1.74454 3.36028 1.64942 3.94479 1.62439C4.57926 1.58935 4.7691 1.58434 6.36777 1.58434ZM3.29001 6.51016C3.29001 4.80803 4.66886 3.42631 6.36744 3.42631C8.06603 3.42631 9.44488 4.80803 9.44488 6.51016C9.44488 8.21229 8.06603 9.59402 6.36744 9.59402C4.66886 9.59402 3.29001 8.21229 3.29001 6.51016ZM6.36743 8.51272C5.26835 8.51272 4.3691 7.6116 4.3691 6.51022C4.3691 5.40884 5.26835 4.50772 6.36743 4.50772C7.46652 4.50772 8.36577 5.40884 8.36577 6.51022C8.36577 7.6116 7.46652 8.51272 6.36743 8.51272ZM9.56989 4.02261C9.96457 4.02261 10.2893 3.70721 10.2893 3.30671L10.3143 3.28168C10.3143 2.88619 9.98954 2.56078 9.58988 2.56078C9.19021 2.56078 8.87048 2.90121 8.87048 3.30171C8.87048 3.70221 9.17023 4.02261 9.56989 4.02261Z" fill="#062949"/>
</g>
</svg>
